<?xml version="1.0" standalone="no"?>
<!DOCTYPE svg PUBLIC "-//W3C//DTD SVG 20010904//EN"
 "http://www.w3.org/TR/2001/REC-SVG-20010904/DTD/svg10.dtd">
<svg version="1.0" xmlns="http://www.w3.org/2000/svg"
 width="384.000000pt" height="388.000000pt" viewBox="0 0 384.000000 388.000000"
 preserveAspectRatio="xMidYMid meet">

<g transform="translate(0.000000,388.000000) scale(0.100000,-0.100000)"
fill="#000000" stroke="none">
<path d="M1129 3802 c-5 -13 -9 -32 -9 -43 0 -11 -4 -17 -10 -14 -5 3 -10 2
-10 -4 0 -5 5 -11 12 -13 13 -5 20 -83 22 -248 1 -63 4 -117 7 -120 10 -8 26
-351 18 -387 -4 -19 -3 -33 3 -33 5 0 8 -44 6 -110 -2 -61 0 -110 5 -110 4 0
7 -5 7 -11 0 -5 -4 -7 -10 -4 -5 3 -10 3 -10 -2 0 -8 -63 -8 -245 1 -60 3
-168 8 -240 11 -71 3 -166 10 -210 15 -44 5 -121 9 -172 9 -85 0 -114 4 -167
18 -12 3 -16 1 -12 -6 12 -19 -32 -12 -44 7 -11 16 -11 16 -6 0 4 -12 0 -18
-12 -18 -12 0 -10 -4 8 -17 30 -20 40 -34 34 -45 -3 -4 1 -5 9 -2 19 7 32 -12
16 -22 -8 -5 -9 -3 -4 6 5 9 4 11 -4 6 -6 -4 -9 -12 -5 -17 3 -5 10 -7 15 -4
11 8 51 -19 42 -28 -3 -4 -1 -7 6 -7 7 0 11 -6 8 -14 -3 -8 2 -20 11 -28 11
-9 14 -10 8 0 -4 6 -3 12 3 12 5 0 13 -5 16 -10 4 -6 11 -7 17 -4 6 4 8 2 5
-3 -4 -6 1 -17 10 -24 14 -12 16 -12 8 1 -8 13 -6 13 8 1 9 -7 14 -17 11 -22
-3 -5 2 -9 10 -9 9 0 16 -5 16 -11 0 -5 4 -8 9 -5 4 3 24 -12 43 -34 20 -21
39 -36 43 -32 4 4 6 0 3 -8 -3 -8 -12 -14 -21 -14 -9 1 -14 -3 -11 -8 3 -5 12
-7 20 -4 19 7 54 -14 55 -34 0 -10 2 -11 6 -3 3 9 17 2 44 -19 21 -17 37 -33
34 -36 -2 -3 -11 1 -20 8 -17 14 -21 0 -4 -17 6 -6 18 -9 27 -6 11 5 13 3 7
-7 -6 -10 -4 -12 7 -7 21 8 55 -28 37 -39 -8 -5 -10 -3 -4 6 5 8 4 11 -3 6 -6
-4 -8 -14 -5 -22 4 -12 8 -13 14 -3 6 10 16 7 42 -11 20 -14 33 -28 31 -32 -3
-4 0 -8 5 -8 11 0 31 -15 86 -65 17 -15 21 -21 10 -14 -18 13 -19 13 -6 -3 7
-10 17 -16 21 -13 10 6 63 -51 66 -71 2 -10 -7 -24 -18 -33 -18 -15 -18 -18
-5 -29 11 -9 17 -10 22 -2 4 6 3 9 -2 8 -4 -2 -9 2 -10 7 -1 6 5 9 13 7 8 -2
14 1 13 5 -5 31 14 46 24 19 4 -11 1 -13 -10 -9 -10 4 -14 2 -10 -4 8 -13 -31
-65 -43 -58 -5 3 -11 1 -15 -5 -4 -6 -11 -7 -17 -4 -6 4 -8 3 -5 -2 3 -6 1
-16 -4 -24 -8 -13 -12 -12 -24 4 -8 11 -15 15 -15 9 0 -7 5 -15 11 -19 7 -4
-1 -17 -22 -35 -32 -27 -56 -38 -45 -21 2 4 -4 8 -15 8 -19 0 -19 -1 1 -16 23
-17 18 -32 -8 -23 -10 4 -13 2 -8 -5 3 -6 -9 -23 -30 -39 -20 -15 -46 -39 -58
-52 -50 -57 -101 -100 -107 -90 -3 6 -9 2 -12 -10 -3 -12 -11 -21 -17 -21 -7
0 -10 7 -7 14 4 10 1 13 -9 9 -17 -6 -18 -20 -1 -26 18 -6 -9 -35 -50 -52 -19
-8 -32 -19 -29 -23 3 -5 -3 -17 -13 -26 -14 -13 -20 -14 -23 -5 -3 9 -7 7 -11
-5 -4 -10 -3 -15 3 -11 6 3 10 1 10 -4 0 -6 -4 -11 -9 -11 -5 0 -42 -32 -82
-70 -48 -46 -80 -69 -91 -66 -10 2 -21 -1 -25 -6 -3 -6 -1 -8 5 -4 6 3 13 2
17 -4 3 -5 -3 -10 -14 -10 -11 0 -23 -4 -26 -10 -3 -5 -1 -10 6 -10 8 0 6 -5
-4 -12 -16 -12 -16 -14 4 -26 12 -8 18 -9 14 -3 -4 7 4 11 20 11 18 0 24 -4
19 -12 -6 -10 -5 -10 7 -1 9 7 48 12 97 12 45 0 86 2 90 5 5 3 49 6 98 6 49 1
227 11 396 21 289 18 341 19 352 8 11 -10 8 -312 -2 -305 -4 2 -6 -28 -5 -67
1 -40 -3 -130 -8 -202 -19 -276 -27 -521 -16 -532 12 -11 46 8 40 23 -3 8 -1
14 3 12 5 -2 27 17 49 42 22 25 62 70 90 101 27 31 56 64 63 73 7 9 18 14 24
10 7 -4 5 -9 -3 -15 -10 -6 -7 -8 8 -6 14 1 19 5 14 12 -11 13 -10 45 1 45 5
0 6 5 3 10 -4 6 -1 9 5 8 7 -2 20 10 29 26 9 16 23 32 30 34 8 3 11 0 7 -7
-15 -24 3 -9 20 17 17 26 17 27 -2 13 -18 -14 -18 -14 -2 4 13 14 20 16 30 7
18 -15 54 -8 49 9 -2 8 -4 19 -5 24 -1 6 -5 15 -9 21 -3 6 7 23 23 38 17 14
30 31 30 37 0 6 7 8 16 5 8 -3 13 -2 10 3 -9 14 35 63 51 56 10 -3 13 -1 10 9
-3 8 2 20 11 28 13 11 14 11 7 -1 -5 -10 -4 -12 4 -7 6 4 9 11 6 16 -6 10 39
62 47 55 3 -3 13 6 23 21 14 21 19 24 27 13 8 -11 8 -10 4 4 -7 20 11 50 32
55 8 1 11 -2 7 -8 -3 -5 1 -10 9 -10 9 0 16 6 16 13 0 6 8 0 18 -16 10 -15 22
-24 27 -20 4 5 5 3 2 -4 -4 -6 6 -22 23 -37 17 -14 29 -31 28 -38 -2 -7 3 -12
10 -10 6 1 12 -5 12 -14 0 -8 4 -13 9 -10 12 8 54 -41 46 -54 -3 -6 -3 -10 2
-9 23 4 32 -2 26 -18 -4 -11 -3 -14 5 -9 7 4 20 -6 32 -26 11 -18 20 -29 20
-25 0 4 16 -9 35 -30 19 -21 35 -44 35 -51 0 -7 4 -11 9 -8 5 3 14 -1 21 -9
10 -11 9 -18 -4 -30 -16 -16 -20 -25 -12 -25 3 0 12 8 21 17 16 15 18 15 26 0
5 -8 29 -36 54 -60 24 -25 41 -47 38 -51 -11 -11 -22 -6 -26 12 -3 13 -4 12
-3 -3 1 -13 8 -20 21 -21 35 -2 38 -4 26 -18 -9 -11 -10 -20 -1 -35 6 -12 13
-21 16 -21 2 0 0 9 -6 19 -7 14 -7 22 2 27 14 9 71 -53 62 -68 -4 -6 -3 -8 3
-5 6 4 21 -5 34 -20 13 -14 17 -22 9 -18 -13 8 -13 7 -1 -8 7 -9 20 -17 27
-17 13 0 18 -12 15 -37 -1 -6 4 -15 10 -19 7 -4 9 -3 5 4 -3 6 -2 13 3 16 10
6 24 -21 17 -33 -3 -4 7 -7 22 -6 25 0 26 3 26 45 -1 54 -13 288 -20 385 -3
39 -7 115 -9 170 -2 55 -7 170 -11 255 -4 85 -8 178 -8 205 l-1 50 130 -3 c72
-2 134 -8 140 -13 5 -5 14 -9 20 -9 5 0 3 5 -5 11 -11 8 -8 9 15 5 44 -7 239
-18 320 -18 39 0 62 -3 53 -6 -9 -4 42 -7 115 -7 73 0 157 -4 187 -8 30 -5 66
-8 79 -8 13 1 30 -4 38 -11 11 -9 19 -6 36 12 l22 24 -23 -19 c-17 -14 -25
-16 -34 -7 -9 9 -8 12 3 12 9 0 26 11 39 25 23 25 23 25 2 25 -11 0 -24 -4
-27 -10 -4 -6 1 -7 12 -4 15 5 15 4 3 -5 -11 -7 -19 -5 -33 10 -10 10 -22 19
-28 19 -6 0 -7 5 -4 10 3 6 1 10 -6 10 -7 0 -5 9 7 22 17 20 17 21 1 8 -16
-12 -20 -12 -29 1 -8 11 -9 10 -4 -6 4 -15 -1 -12 -19 10 -14 17 -29 30 -33
30 -12 0 -102 93 -102 105 0 14 18 12 23 -2 2 -7 4 -2 3 12 -1 19 -7 25 -25
27 -17 1 -20 -1 -10 -8 11 -6 11 -11 1 -21 -9 -9 -12 -9 -12 1 0 7 -4 10 -9 6
-13 -7 -51 43 -45 60 3 7 0 16 -7 21 -7 4 -10 3 -5 -4 3 -6 2 -13 -4 -17 -5
-3 -10 -1 -10 5 0 6 -11 16 -25 22 -13 6 -27 20 -31 30 -3 11 -17 23 -30 28
-13 5 -24 14 -24 20 0 5 -7 10 -16 10 -14 0 -14 3 -4 15 7 9 10 19 6 22 -4 4
-11 1 -15 -6 -7 -11 -14 -9 -32 8 -13 12 -24 27 -24 33 0 6 -8 12 -18 14 -25
3 -48 24 -40 37 3 5 1 7 -4 4 -6 -4 -17 1 -24 10 -8 9 -9 14 -3 10 6 -3 11 0
11 8 0 9 -5 11 -14 6 -15 -8 -100 64 -95 81 1 5 -1 7 -6 4 -12 -7 -54 38 -45
49 5 4 -1 5 -11 1 -15 -5 -17 -4 -8 7 12 14 6 27 -12 27 -6 0 -4 -5 4 -10 9
-6 10 -10 3 -10 -24 0 -24 20 0 31 14 6 30 21 35 33 6 11 11 15 11 9 1 -7 6
-13 11 -13 6 0 10 6 8 14 -2 8 1 15 5 15 5 0 17 10 28 22 17 19 23 19 21 -2
-1 -8 36 -4 45 5 5 4 4 7 -2 6 -20 -4 -33 0 -38 14 -4 10 -1 13 9 9 10 -4 12
0 7 13 -6 17 -5 18 12 4 13 -11 17 -11 11 -2 -11 19 49 73 71 65 11 -4 14 -3
9 5 -8 13 6 17 18 5 3 -4 -2 -12 -13 -18 -15 -8 -18 -14 -10 -25 8 -11 12 -12
16 -2 2 6 8 10 12 8 6 -4 7 29 1 44 -1 3 -2 8 -1 12 0 4 -7 4 -16 1 -10 -4 1
10 24 30 22 20 44 37 49 37 4 0 25 18 45 40 21 22 42 40 47 40 5 0 15 7 22 15
7 8 16 13 20 10 5 -3 12 0 16 6 5 8 3 9 -7 4 -8 -5 -11 -4 -6 1 5 5 18 9 30 9
11 0 22 7 25 15 5 13 3 13 -11 1 -10 -7 -17 -10 -17 -5 1 16 34 51 68 70 19
11 30 24 27 32 -2 7 0 10 5 7 6 -3 10 -2 10 3 0 13 50 33 63 25 9 -5 9 -3 0 8
-10 13 -5 22 32 57 25 23 48 43 52 44 5 2 19 14 31 28 17 18 22 20 18 8 -3
-10 -1 -18 5 -18 5 0 8 12 6 28 -3 17 -10 27 -20 26 -9 -1 -15 2 -12 6 3 4 -2
11 -11 14 -8 3 -12 2 -9 -3 6 -11 -50 -18 -207 -26 -84 -4 -108 -3 -108 7 0
10 -2 10 -8 1 -5 -7 -61 -16 -152 -22 -186 -13 -459 -26 -530 -25 l-55 0 -7
40 c-3 21 -2 98 2 169 9 135 16 270 25 485 3 69 8 172 12 230 9 160 9 180 1
193 -4 7 -8 8 -8 3 0 -5 -8 -2 -17 5 -16 12 -17 12 -6 -2 11 -13 10 -19 -6
-33 -14 -13 -21 -14 -27 -5 -5 8 -3 10 7 4 8 -5 10 -4 6 0 -15 17 -36 13 -34
-5 1 -10 4 -18 7 -18 18 2 17 -5 -2 -24 -13 -13 -26 -22 -31 -20 -4 1 -13 -9
-19 -23 -7 -15 -17 -24 -25 -21 -8 3 -12 2 -9 -2 2 -4 -1 -17 -7 -28 -17 -30
-92 -113 -78 -87 7 14 8 24 1 28 -5 3 -10 5 -11 3 0 -2 -2 -16 -4 -32 -5 -36
-34 -69 -49 -56 -8 6 -12 2 -13 -13 -1 -12 -12 -30 -25 -41 -13 -10 -22 -24
-20 -30 1 -6 -4 -3 -12 7 -13 16 -14 16 -27 0 -8 -9 -9 -14 -2 -10 6 4 14 3
18 -3 3 -5 1 -10 -5 -10 -6 0 -9 -4 -6 -9 3 -4 -6 -19 -19 -31 -14 -13 -25
-18 -25 -11 0 7 -5 9 -10 6 -8 -5 -7 -11 1 -21 11 -13 6 -18 -14 -15 -5 1 -6
-2 -3 -7 3 -5 -10 -23 -29 -39 -25 -23 -37 -27 -46 -19 -9 8 -9 6 0 -11 10
-20 9 -22 -5 -16 -11 4 -15 3 -10 -5 3 -6 -6 -22 -21 -36 -22 -21 -30 -23 -42
-13 -14 10 -14 10 -3 -5 12 -15 9 -22 -20 -57 -18 -23 -39 -41 -46 -41 -7 0
-10 -4 -7 -10 3 -5 1 -10 -5 -10 -6 0 -9 -4 -5 -9 7 -12 -9 -22 -40 -26 -15
-1 -33 7 -46 21 -13 13 -19 24 -15 24 4 0 -14 19 -41 41 -54 47 -64 59 -57 71
3 4 0 8 -7 8 -19 0 -48 30 -43 45 3 7 0 16 -7 21 -8 5 -10 3 -4 -7 4 -8 -13 8
-39 34 -25 27 -43 54 -39 59 3 6 1 8 -4 5 -6 -4 -16 0 -23 8 -7 8 -9 15 -4 15
5 0 2 4 -6 10 -8 5 -11 12 -7 16 3 4 13 2 21 -5 11 -9 15 -7 19 9 3 11 1 18
-4 14 -5 -3 -9 2 -9 10 0 23 -17 20 -23 -4 -6 -23 -37 -27 -37 -4 0 9 -5 12
-12 8 -8 -5 -9 -2 -5 9 3 9 1 19 -5 23 -7 4 -8 3 -4 -4 4 -7 3 -12 -2 -12 -10
0 -24 25 -27 45 0 6 -7 9 -14 7 -7 -1 -15 7 -18 18 -3 11 -9 18 -13 15 -11 -7
-7 15 8 42 7 12 9 23 5 26 -16 7 -37 1 -41 -12 -3 -10 0 -12 12 -8 11 4 16 3
14 -4 -2 -6 -7 -10 -11 -10 -4 1 -15 1 -24 1 -9 0 -14 2 -11 5 3 3 -10 22 -28
42 -18 20 -31 40 -28 44 3 5 -2 6 -11 3 -9 -4 -15 -2 -13 3 2 6 -8 19 -22 31
-21 17 -23 22 -11 36 15 18 9 32 -8 21 -6 -3 -8 -11 -5 -17 4 -6 -3 -5 -15 2
-12 6 -25 19 -28 27 -4 9 -20 30 -37 46 -17 16 -23 24 -13 17 13 -9 17 -9 17
-1 0 7 5 9 12 5 6 -4 8 -3 4 4 -11 19 -48 9 -57 -16z m1336 -469 c-7 -19 -10
-75 -20 -376 -3 -98 -10 -199 -15 -223 -6 -25 -8 -50 -4 -55 3 -6 2 -18 -2
-27 -4 -9 -8 -21 -8 -26 -1 -5 -9 -10 -19 -12 -11 -1 -21 -5 -24 -8 -4 -3 -12
2 -19 12 -12 16 -13 16 -15 -3 -2 -26 -2 -27 7 -49 5 -14 4 -17 -4 -12 -7 4
-16 -2 -21 -16 -9 -24 -61 -78 -61 -63 0 5 -9 -1 -20 -13 -25 -26 -38 -29 -19
-4 11 14 11 15 -1 5 -8 -8 -19 -9 -30 -3 -12 6 -17 5 -17 -5 0 -7 6 -11 12 -8
7 2 15 -3 19 -12 3 -9 2 -13 -4 -10 -9 5 -14 -7 -12 -26 2 -15 -37 -39 -69
-43 -25 -2 -34 -9 -35 -22 -1 -11 -2 -22 -3 -26 -1 -5 -1 -11 0 -14 1 -3 -12
-19 -27 -35 -27 -28 -29 -29 -43 -12 -11 15 -13 15 -8 1 3 -9 -3 -24 -13 -33
-18 -16 -20 -16 -26 -2 -6 17 1 571 8 598 7 30 55 72 74 65 14 -5 15 -4 4 9
-10 12 -10 15 4 15 9 0 16 6 16 14 0 19 29 48 41 41 5 -4 6 0 4 7 -3 8 13 32
35 55 22 23 40 46 40 51 0 4 16 23 35 42 26 25 37 31 47 22 11 -8 14 -7 14 8
0 10 -5 16 -11 13 -5 -3 1 5 15 18 13 13 29 23 34 21 4 -2 6 4 2 13 -3 9 -2
13 4 10 6 -3 10 1 10 10 0 9 4 14 9 11 5 -4 11 -3 14 1 4 9 0 -7 -9 -34 -5
-14 -4 -15 4 -4 5 7 15 10 21 7 14 -9 14 19 0 46 -7 13 -7 18 -1 14 6 -3 14 3
17 15 7 21 8 21 30 -7 22 -27 24 -27 22 -7 -1 12 -5 21 -10 20 -5 -1 -12 4
-14 11 -3 7 1 11 9 10 7 -2 12 5 12 14 -1 10 2 15 7 12 5 -3 9 0 9 5 0 6 3 11
6 11 3 0 3 -8 -1 -17z m-1111 -18 c4 -14 10 -23 15 -21 14 9 73 -64 66 -82 -3
-9 -3 -13 1 -10 8 9 46 -10 40 -20 -7 -12 6 -26 37 -40 18 -8 27 -18 25 -29
-2 -12 3 -18 14 -17 10 1 21 -10 27 -27 5 -16 13 -29 16 -29 3 0 3 6 -1 13 -4
6 2 3 14 -7 12 -11 22 -25 22 -33 0 -7 5 -13 11 -13 5 0 8 -4 5 -9 -3 -4 4
-17 17 -27 12 -10 16 -12 10 -4 -7 8 -13 18 -13 24 0 5 11 -5 25 -24 14 -19
32 -38 40 -43 8 -4 15 -15 15 -24 0 -9 3 -14 6 -10 10 10 36 -22 42 -51 3 -15
7 -157 9 -315 l4 -288 -28 3 c-19 2 -28 8 -27 21 1 9 -5 17 -13 17 -8 0 -11 5
-8 10 4 6 10 8 14 6 4 -3 8 1 8 8 0 11 -4 12 -19 3 -19 -12 -53 0 -53 19 0 14
-38 54 -51 54 -6 0 -19 9 -29 20 -10 11 -14 20 -10 20 5 0 4 5 -3 12 -19 19
-14 32 6 17 15 -12 16 -12 4 2 -7 10 -21 14 -36 12 -18 -4 -31 5 -62 46 -21
27 -45 50 -52 51 -7 0 -17 11 -22 25 -5 14 -21 30 -34 35 -34 13 -45 77 -48
287 -2 94 -6 169 -10 167 -4 -2 -7 59 -7 136 0 110 3 140 13 140 8 0 17 -11
20 -25z m-708 -766 c105 3 398 -19 405 -31 4 -6 13 -7 25 -1 18 9 64 8 124 -1
14 -3 31 -5 38 -5 7 -1 11 -5 8 -10 -3 -5 -14 -8 -24 -6 -9 1 -11 0 -4 -2 7
-3 9 -10 5 -16 -4 -7 2 -5 12 3 14 11 19 12 22 2 3 -6 9 -10 14 -6 8 5 13 -10
10 -29 -1 -5 3 -6 7 -3 5 3 17 -3 26 -13 16 -17 16 -18 -1 -17 -10 0 -19 -3
-21 -9 -1 -5 11 -10 27 -10 18 0 27 3 24 10 -10 19 42 -40 60 -67 10 -16 24
-28 32 -28 8 0 15 -3 15 -7 0 -11 60 -78 60 -67 0 4 10 -6 23 -22 12 -17 49
-57 82 -90 33 -32 53 -50 45 -39 -14 19 -14 19 2 6 10 -7 15 -17 12 -22 -3 -5
-143 -9 -312 -9 -263 0 -311 2 -330 16 -12 8 -20 18 -18 22 2 4 -3 16 -11 27
-15 19 -15 19 -8 -5 7 -24 7 -24 -21 5 -16 17 -27 33 -26 38 1 4 -3 7 -9 7 -6
0 -18 7 -26 16 -14 13 -14 17 -2 25 12 8 12 10 -1 8 -29 -3 -38 1 -36 19 1 11
-5 16 -17 14 -10 -2 -32 11 -50 27 -17 17 -36 31 -41 31 -6 0 -5 4 2 8 9 6 7
13 -10 28 -22 19 -22 19 -8 0 14 -18 14 -19 -8 -7 -12 6 -28 21 -35 31 -6 11
-17 20 -24 20 -20 0 -26 20 -11 37 12 15 11 15 -10 4 -22 -12 -23 -11 -13 7
13 24 4 34 -19 22 -13 -7 -25 -1 -53 27 -35 33 -50 62 -25 47 8 -5 9 -2 5 10
-5 11 -3 15 5 10 6 -4 44 -6 84 -5z m2594 1 c0 -5 8 -6 18 -3 9 4 -3 -12 -28
-35 -25 -23 -51 -42 -58 -42 -7 0 -11 -4 -8 -9 8 -12 -21 -34 -34 -26 -5 3
-10 0 -10 -8 0 -19 -47 -62 -52 -47 -2 8 -9 6 -18 -6 -9 -11 -10 -15 -2 -10
24 14 11 -9 -23 -42 -19 -19 -38 -31 -43 -28 -6 3 -16 -2 -23 -12 -13 -16 -12
-16 6 -2 15 11 14 7 -4 -13 -20 -22 -27 -25 -39 -14 -13 10 -15 9 -10 -4 4
-11 -6 -28 -28 -50 -30 -29 -37 -32 -54 -21 -12 7 -20 8 -20 2 0 -5 5 -10 10
-10 6 0 10 -5 10 -11 0 -6 -7 -8 -16 -5 -8 3 -12 2 -9 -4 3 -6 1 -10 -5 -10
-6 0 -8 -5 -4 -12 4 -7 3 -8 -4 -4 -7 4 -12 1 -12 -8 0 -8 -5 -18 -12 -22 -7
-4 -8 -3 -4 4 4 7 2 12 -3 12 -11 0 -15 -15 -12 -34 1 -5 -5 -3 -14 4 -14 11
-16 11 -13 -1 3 -12 -42 -14 -284 -17 -184 -1 -288 1 -288 8 0 5 -6 7 -14 4
-10 -4 -14 0 -12 13 2 12 11 18 27 18 13 0 25 5 26 10 1 6 -5 9 -12 7 -9 -2
-6 7 8 22 16 18 26 22 39 15 10 -6 19 -5 23 1 3 5 1 10 -5 10 -5 0 0 15 12 34
13 19 27 32 31 29 5 -3 4 -9 -3 -13 -8 -5 -9 -10 -2 -14 12 -7 26 10 18 23 -3
5 1 14 9 21 8 7 12 17 8 24 -3 6 0 6 8 -1 18 -18 29 -16 29 5 0 14 -2 15 -10
2 -5 -8 -10 -10 -10 -5 1 6 7 19 15 29 8 11 15 16 15 12 0 -5 7 -3 15 4 11 9
15 9 15 1 0 -7 5 -9 11 -6 6 5 4 12 -8 22 -10 8 -13 12 -6 9 6 -4 19 7 29 23
18 30 38 34 27 6 -7 -21 1 -19 22 5 18 20 18 21 -1 14 -16 -7 -17 -5 -7 8 7 8
9 19 5 23 -4 5 -1 5 6 1 6 -4 12 -3 12 2 0 5 19 28 42 51 38 39 45 42 79 36
21 -4 46 -2 56 3 10 5 81 13 158 17 77 4 199 11 270 15 72 4 138 7 148 8 9 1
17 -2 17 -8z m-1100 -204 c0 -3 -4 -8 -10 -11 -5 -3 -10 -1 -10 4 0 6 5 11 10
11 6 0 10 -2 10 -4z m-30 -27 c0 -6 -4 -7 -10 -4 -5 3 -10 11 -10 16 0 6 5 7
10 4 6 -3 10 -11 10 -16z m-500 -438 c0 -5 -5 -11 -12 -13 -7 -3 -8 -10 -4
-17 6 -9 11 -10 19 -2 14 14 27 14 27 0 0 -5 -4 -8 -9 -5 -5 3 -14 -1 -21 -9
-7 -8 -9 -15 -5 -15 4 0 2 -7 -5 -15 -13 -15 -24 -13 -26 6 -1 5 -2 11 -3 14
-2 11 -41 -16 -41 -28 0 -9 3 -9 9 1 6 10 10 10 20 -1 9 -12 8 -16 -6 -22 -10
-5 -22 -7 -26 -6 -5 1 -6 -3 -2 -9 3 -5 1 -10 -6 -10 -7 0 -9 -3 -6 -7 4 -3
17 2 29 13 23 19 23 19 0 -7 -13 -15 -30 -26 -39 -25 -9 0 -18 -5 -21 -13 -3
-9 0 -11 9 -6 8 4 5 -1 -6 -12 -11 -10 -28 -22 -38 -26 -10 -4 -16 -10 -13
-15 2 -4 -4 -8 -15 -8 -21 0 -25 12 -6 19 9 4 9 6 0 6 -6 1 -14 -3 -17 -8 -9
-15 5 -42 18 -34 6 4 -4 -9 -22 -28 -18 -19 -37 -35 -43 -35 -5 -1 -13 -2 -19
-3 -5 0 -10 -6 -10 -12 0 -5 5 -7 10 -4 6 3 10 4 10 1 0 -2 -16 -14 -35 -26
-21 -13 -32 -26 -28 -33 4 -7 -5 -4 -20 6 -27 18 -32 13 -21 -18 6 -13 9 -14
16 -3 8 10 9 10 5 -2 -2 -8 -10 -14 -17 -12 -7 1 -17 -4 -24 -12 -9 -11 -53
-15 -206 -20 -107 -3 -226 -8 -265 -10 -159 -10 -206 -9 -218 3 -7 7 -7 12 -2
11 22 -5 35 1 35 14 0 21 24 37 38 26 9 -7 9 -7 2 2 -11 14 15 48 37 48 8 0
12 4 9 9 -6 9 22 26 37 22 5 -1 6 2 3 7 -5 9 70 86 86 88 4 1 12 2 18 3 5 0 9
7 7 14 -1 6 5 11 14 9 9 -1 22 5 29 13 10 12 16 13 29 3 13 -10 14 -9 5 0 -6
7 -9 23 -6 35 5 27 105 113 126 109 10 -2 14 2 10 12 -3 9 2 17 15 21 12 3 21
11 21 16 0 5 115 9 285 9 166 0 285 -4 285 -9z m50 4 c0 -7 -30 -13 -34 -7 -3
4 4 9 15 9 10 1 19 0 19 -2z m1065 -15 c-4 -12 -2 -20 5 -20 6 0 9 4 6 9 -11
17 23 20 36 3 12 -15 11 -16 -4 -3 -11 8 -18 9 -18 3 0 -10 38 -28 51 -24 6 1
81 -76 94 -98 3 -5 1 -19 -6 -31 -9 -17 -8 -20 2 -14 8 6 11 4 7 -6 -4 -10 1
-15 13 -15 23 0 23 1 3 20 -8 9 -12 21 -8 28 5 8 10 4 15 -10 5 -12 13 -22 19
-22 6 0 8 6 5 13 -4 6 22 -17 56 -53 35 -36 59 -58 54 -50 -8 13 -7 13 9 0 11
-8 14 -16 7 -18 -7 -2 -5 -9 5 -19 8 -8 18 -13 21 -9 10 9 43 -25 36 -37 -4
-6 0 -8 9 -4 21 8 73 -46 62 -65 -6 -10 -4 -10 10 1 16 13 16 12 5 -12 l-12
-26 -136 4 c-140 4 -336 13 -450 21 -67 4 -87 13 -79 36 8 21 9 28 1 27 -5 -1
-7 -6 -5 -11 2 -6 -4 -8 -13 -4 -9 3 -20 6 -25 6 -5 0 -25 23 -45 50 -20 28
-43 50 -50 50 -19 0 -29 38 -15 55 7 8 10 15 6 15 -16 0 -21 -3 -19 -11 4 -14
-13 -10 -27 6 -7 8 -16 13 -20 10 -4 -3 -15 6 -23 19 -14 20 -14 25 -1 39 8 9
11 15 8 12 -4 -3 -14 1 -23 8 -14 11 -14 10 -2 -5 15 -20 1 -24 -17 -5 -7 6
-18 12 -24 12 -6 0 -18 13 -27 28 -9 15 -27 34 -41 40 -19 10 -24 20 -23 40 1
15 -2 25 -7 22 -5 -3 -11 -1 -14 3 -3 5 129 10 295 10 296 2 300 2 294 -18z
m-695 -160 c8 -12 14 -25 13 -29 -1 -4 5 -8 12 -8 9 0 12 5 7 12 -4 6 4 -2 18
-19 40 -48 73 -82 64 -66 -5 9 -1 7 8 -3 10 -11 15 -23 12 -28 -3 -5 -1 -8 5
-7 6 2 21 -8 33 -22 13 -14 19 -19 13 -10 -6 10 -2 8 13 -4 12 -11 20 -21 18
-24 -3 -2 6 -15 20 -29 14 -14 21 -29 17 -36 -4 -8 -1 -7 9 1 14 11 18 10 27
-6 6 -11 7 -23 3 -27 -4 -3 -2 -6 3 -5 23 5 27 -1 11 -19 -12 -13 -14 -21 -6
-26 6 -4 9 -1 8 7 -2 7 4 13 12 13 8 0 14 -6 12 -14 -3 -12 0 -12 12 -2 12 10
16 8 21 -8 3 -12 13 -21 21 -21 8 0 14 -5 14 -11 0 -5 -6 -7 -12 -3 -10 6 -10
4 0 -8 7 -9 12 -20 11 -24 -1 -5 0 -11 1 -14 1 -3 3 -36 5 -75 1 -38 5 -113 9
-165 3 -52 8 -158 11 -234 3 -77 8 -151 12 -165 6 -24 5 -25 -11 -12 -10 9
-15 23 -12 34 5 22 -2 47 -14 47 -5 0 -7 -17 -4 -37 4 -32 3 -35 -6 -18 -6 12
-21 25 -32 30 -23 11 -25 32 -2 27 18 -4 18 12 -1 28 -10 9 -15 9 -15 1 0 -6
-4 -11 -9 -11 -13 0 -61 52 -56 61 3 4 0 11 -6 15 -8 5 -10 2 -4 -7 4 -8 -8 2
-28 21 -19 19 -33 36 -32 38 2 2 -19 24 -46 50 -27 26 -49 52 -49 59 0 7 -7
13 -16 13 -8 0 -12 5 -9 10 4 6 11 8 16 5 5 -3 6 1 3 10 -4 9 -3 15 2 13 5 -2
10 1 12 6 1 6 -4 11 -13 12 -8 1 -13 -1 -10 -6 2 -4 -6 -7 -20 -7 -13 0 -36
12 -51 28 -27 28 -22 41 6 17 12 -11 12 -10 1 5 -11 14 -11 20 0 35 12 15 11
15 -8 -1 -20 -18 -22 -18 -50 10 -29 29 -39 70 -15 65 8 -1 11 2 7 8 -3 6 -10
8 -15 5 -22 -14 -28 561 -5 577 10 8 24 -6 55 -52z m-231 -276 l0 -306 -29
-31 c-17 -18 -30 -35 -30 -39 0 -5 -5 -8 -11 -8 -5 0 -8 4 -5 9 3 5 -4 11 -15
14 -20 5 -20 5 -2 -15 13 -15 15 -22 6 -25 -7 -3 -13 -9 -13 -15 0 -5 -16 -25
-36 -44 -31 -28 -40 -32 -53 -22 -13 10 -14 10 -3 -2 14 -17 16 -34 2 -25 -5
3 -10 0 -10 -8 0 -8 -9 -22 -19 -31 -15 -13 -20 -14 -25 -4 -3 7 -3 3 0 -9 5
-22 -4 -29 -30 -24 -5 1 -6 -5 -3 -13 7 -18 -33 -55 -53 -49 -13 4 -13 3 0 -6
14 -10 7 -16 -13 -12 -5 1 -5 -4 -2 -10 11 -16 -55 -73 -68 -60 -6 6 -16 11
-21 11 -6 0 -2 -7 8 -15 10 -8 24 -12 30 -8 6 3 -3 -7 -20 -23 -64 -61 -61
-64 -59 54 4 236 18 561 24 557 4 -2 7 8 6 23 0 18 9 34 27 48 15 11 27 23 25
25 -1 2 3 -1 9 -8 15 -17 21 -16 28 3 3 8 2 12 -3 9 -23 -14 -20 18 3 40 25
23 26 23 26 4 0 -12 4 -17 11 -14 6 4 8 13 5 20 -2 7 4 21 15 31 13 12 19 13
19 4 0 -10 3 -10 15 0 19 15 10 31 -13 24 -9 -4 -3 3 13 15 17 12 35 19 42 16
7 -2 15 0 18 5 4 6 1 10 -5 10 -6 0 -1 14 11 31 16 23 24 28 30 17 7 -10 12
-10 26 5 17 17 17 18 -2 11 -19 -7 -19 -7 -2 13 9 11 17 24 17 30 0 5 12 16
26 23 14 8 39 31 56 52 16 21 33 36 38 33 5 -3 8 -143 9 -311z m-955 267 c-10
-10 -21 -16 -24 -14 -3 3 4 11 14 19 28 20 33 17 10 -5z m-489 -201 c-3 -5
-12 -10 -18 -10 -7 0 -6 4 3 10 19 12 23 12 15 0z m2885 -80 c0 -5 -4 -10 -10
-10 -5 0 -10 5 -10 10 0 6 5 10 10 10 6 0 10 -4 10 -10z m25 0 c3 -5 1 -10 -4
-10 -6 0 -11 5 -11 10 0 6 2 10 4 10 3 0 8 -4 11 -10z m-1150 -420 c3 -5 -1
-10 -10 -10 -9 0 -13 5 -10 10 3 6 8 10 10 10 2 0 7 -4 10 -10z m-539 -405
c-4 -28 -22 -37 -37 -19 -13 16 -12 17 8 12 16 -4 20 -2 16 8 -3 8 -1 14 5 14
6 0 9 -7 8 -15z"/>
<path d="M2246 3122 c-3 -5 1 -9 9 -9 8 0 12 4 9 9 -3 4 -7 8 -9 8 -2 0 -6 -4
-9 -8z"/>
<path d="M2216 3092 c-3 -5 1 -9 9 -9 8 0 12 4 9 9 -3 4 -7 8 -9 8 -2 0 -6 -4
-9 -8z"/>
<path d="M2206 3059 c8 -13 44 -31 44 -22 0 4 -11 13 -25 20 -14 6 -23 7 -19
2z"/>
<path d="M2135 2960 c3 -5 8 -10 11 -10 2 0 4 5 4 10 0 6 -5 10 -11 10 -5 0
-7 -4 -4 -10z"/>
<path d="M2085 2920 c-3 -5 -1 -10 4 -10 6 0 11 5 11 10 0 6 -2 10 -4 10 -3 0
-8 -4 -11 -10z"/>
<path d="M2400 2654 c0 -8 5 -12 10 -9 6 3 10 10 10 16 0 5 -4 9 -10 9 -5 0
-10 -7 -10 -16z"/>
<path d="M2249 2548 c0 -2 -2 -17 -4 -34 -5 -37 15 -41 45 -9 16 17 17 22 5
22 -8 0 -15 -4 -15 -9 0 -4 -5 -8 -11 -8 -6 0 -9 7 -6 15 4 8 2 17 -3 20 -6 4
-10 5 -11 3z"/>
<path d="M2162 2406 c1 -14 5 -23 9 -20 7 4 0 44 -7 44 -2 0 -3 -11 -2 -24z"/>
<path d="M2006 2288 c3 -4 9 -6 14 -3 5 3 11 1 15 -5 3 -5 2 -10 -3 -10 -5 0
-9 -7 -9 -15 0 -13 3 -12 17 2 25 28 23 38 -10 39 -16 1 -27 -3 -24 -8z"/>
<path d="M1395 3200 c3 -5 10 -10 16 -10 5 0 9 5 9 10 0 6 -7 10 -16 10 -8 0
-12 -4 -9 -10z"/>
<path d="M1444 3156 c-1 -14 2 -23 7 -20 5 3 9 1 9 -4 0 -5 13 -12 29 -14 17
-2 28 -1 25 4 -3 4 -10 8 -15 8 -6 0 -20 12 -32 26 l-22 25 -1 -25z"/>
<path d="M1609 3028 c-1 -2 -3 -20 -4 -40 -1 -28 1 -35 10 -28 7 5 16 6 20 2
5 -4 1 6 -8 21 -10 15 -15 32 -12 37 3 6 4 10 1 10 -3 0 -7 -1 -7 -2z"/>
<path d="M1680 2931 c0 -6 5 -11 10 -11 7 0 7 -7 0 -21 -7 -11 -9 -23 -6 -27
3 -3 6 0 6 7 0 7 4 10 9 7 5 -3 15 2 22 12 13 16 13 16 -5 2 -18 -14 -19 -13
-13 2 3 9 -1 22 -9 28 -10 9 -14 9 -14 1z"/>
<path d="M1410 2616 c0 -2 8 -10 18 -17 15 -13 16 -12 3 4 -13 16 -21 21 -21
13z"/>
<path d="M1490 2534 c-11 -12 -11 -15 1 -12 8 2 13 -3 11 -10 -1 -8 2 -11 8
-7 8 5 8 11 1 19 -6 7 -8 16 -4 19 3 4 4 7 1 7 -3 0 -11 -7 -18 -16z"/>
<path d="M1655 2370 c10 -11 20 -20 23 -20 3 0 -3 9 -13 20 -10 11 -20 20 -23
20 -3 0 3 -9 13 -20z"/>
<path d="M1782 2270 c0 -14 2 -19 5 -12 2 6 2 18 0 25 -3 6 -5 1 -5 -13z"/>
<path d="M600 2481 c0 -6 5 -13 10 -16 6 -3 10 1 10 9 0 9 -4 16 -10 16 -5 0
-10 -4 -10 -9z"/>
<path d="M675 2410 c-3 -5 -1 -10 4 -10 6 0 11 5 11 10 0 6 -2 10 -4 10 -3 0
-8 -4 -11 -10z"/>
<path d="M1371 2336 c-9 -11 -9 -16 1 -22 7 -4 10 -4 6 1 -4 4 -3 14 3 22 6 7
9 13 6 13 -2 0 -10 -6 -16 -14z"/>
<path d="M825 2290 c6 -32 9 -33 31 -8 10 12 13 18 6 14 -7 -4 -19 -2 -27 4
-12 10 -13 8 -10 -10z"/>
<path d="M1451 2256 c-8 -10 -9 -16 -1 -21 5 -3 10 -5 11 -3 4 18 7 38 4 38
-1 0 -8 -6 -14 -14z"/>
<path d="M1525 2171 c-3 -5 -2 -12 3 -15 5 -3 9 1 9 9 0 17 -3 19 -12 6z"/>
<path d="M1023 2135 c0 -8 4 -12 9 -9 5 3 6 10 3 15 -9 13 -12 11 -12 -6z"/>
<path d="M1605 2091 c-3 -5 -2 -12 3 -15 5 -3 9 1 9 9 0 17 -3 19 -12 6z"/>
<path d="M3208 2533 c10 -4 10 -8 0 -21 -12 -15 -11 -16 4 -3 19 14 15 32 -5
30 -8 0 -8 -2 1 -6z"/>
<path d="M2533 2487 c-12 -14 -13 -18 -3 -11 8 4 26 10 40 12 34 5 35 9 6 14
-17 4 -31 -1 -43 -15z"/>
<path d="M2615 2440 c-3 -5 1 -10 9 -10 9 0 16 5 16 10 0 6 -4 10 -9 10 -6 0
-13 -4 -16 -10z"/>
<path d="M2735 2140 c3 -5 -1 -10 -7 -13 -9 -3 -10 -8 -2 -16 7 -8 16 -5 33
13 l22 24 -25 0 c-14 0 -23 -4 -21 -8z"/>
<path d="M934 1788 l-19 -23 23 19 c21 18 27 26 19 26 -2 0 -12 -10 -23 -22z"/>
<path d="M1446 1704 c-8 -21 -4 -25 14 -14 11 7 12 12 4 20 -8 8 -13 7 -18 -6z"/>
<path d="M749 1617 c-7 -12 -8 -19 -4 -15 4 4 17 2 29 -4 11 -6 18 -7 14 -3
-4 5 -3 14 3 22 6 7 10 13 8 14 -33 7 -41 4 -50 -14z m35 1 c-3 -4 -9 -8 -15
-8 -5 0 -9 4 -9 8 0 5 7 9 15 9 8 0 12 -4 9 -9z"/>
<path d="M1366 1625 c-9 -26 -7 -32 5 -12 6 10 9 21 6 23 -2 3 -7 -2 -11 -11z"/>
<path d="M1286 1545 c-3 -9 0 -15 9 -15 16 0 20 16 6 24 -5 3 -11 -1 -15 -9z"/>
<path d="M665 1530 c3 -5 8 -10 11 -10 2 0 4 5 4 10 0 6 -5 10 -11 10 -5 0 -7
-4 -4 -10z"/>
<path d="M625 1489 c-4 -6 -5 -12 -2 -15 2 -3 7 2 10 11 7 17 1 20 -8 4z"/>
<path d="M575 1440 c-3 -6 1 -7 9 -4 18 7 21 14 7 14 -6 0 -13 -4 -16 -10z"/>
<path d="M2820 1805 c13 -14 26 -25 28 -25 3 0 -5 11 -18 25 -13 14 -26 25
-28 25 -3 0 5 -11 18 -25z"/>
<path d="M2210 1816 c0 -2 8 -10 18 -17 15 -13 16 -12 3 4 -13 16 -21 21 -21
13z"/>
<path d="M2985 1640 c-3 -5 -1 -10 4 -10 6 0 11 5 11 10 0 6 -2 10 -4 10 -3 0
-8 -4 -11 -10z"/>
<path d="M2960 1611 c0 -6 4 -13 10 -16 6 -3 7 1 4 9 -7 18 -14 21 -14 7z"/>
<path d="M2459 1588 c0 -2 -2 -11 -4 -21 -3 -15 -1 -16 11 -6 7 6 11 15 8 20
-5 9 -13 12 -15 7z"/>
<path d="M3120 1480 c0 -13 11 -13 30 0 12 8 11 10 -7 10 -13 0 -23 -4 -23
-10z"/>
<path d="M2007 1693 c-10 -9 -9 -23 1 -23 5 0 9 7 9 15 0 17 -1 18 -10 8z"/>
<path d="M2085 1611 c-3 -5 -2 -12 3 -15 5 -3 9 1 9 9 0 17 -3 19 -12 6z"/>
<path d="M2246 1451 c-4 -5 -2 -12 3 -15 5 -4 12 -2 15 3 4 5 2 12 -3 15 -5 4
-12 2 -15 -3z"/>
<path d="M2155 940 c4 -6 11 -8 16 -5 14 9 11 15 -7 15 -8 0 -12 -5 -9 -10z"/>
<path d="M2197 913 c-3 -5 1 -14 9 -20 14 -14 30 0 19 17 -7 12 -22 13 -28 3z"/>
<path d="M2285 860 c-3 -6 1 -7 9 -4 18 7 21 14 7 14 -6 0 -13 -4 -16 -10z"/>
<path d="M2265 820 c3 -5 8 -10 11 -10 2 0 4 5 4 10 0 6 -5 10 -11 10 -5 0 -7
-4 -4 -10z"/>
<path d="M2441 774 c0 -11 3 -14 6 -6 3 7 2 16 -1 19 -3 4 -6 -2 -5 -13z"/>
<path d="M1735 1680 c-3 -5 -2 -10 4 -10 5 0 13 5 16 10 3 6 2 10 -4 10 -5 0
-13 -4 -16 -10z"/>
<path d="M1371 1314 c0 -11 3 -14 6 -6 3 7 2 16 -1 19 -3 4 -6 -2 -5 -13z"/>
<path d="M1632 975 c-7 -8 -9 -15 -4 -15 5 0 15 7 22 15 16 19 -1 19 -18 0z"/>
<path d="M1560 940 c0 -5 7 -10 15 -10 8 0 15 5 15 10 0 6 -7 10 -15 10 -8 0
-15 -4 -15 -10z"/>
<path d="M2525 3742 c-5 -4 -17 -16 -25 -27 -11 -15 -7 -14 13 4 24 22 32 31
25 31 -2 0 -7 -4 -13 -8z"/>
<path d="M1065 3680 c3 -5 8 -10 11 -10 2 0 4 5 4 10 0 6 -5 10 -11 10 -5 0
-7 -4 -4 -10z"/>
<path d="M2396 3658 c3 -5 10 -6 15 -3 13 9 11 12 -6 12 -8 0 -12 -4 -9 -9z"/>
<path d="M1336 3632 c-3 -6 -1 -14 5 -17 15 -10 25 3 12 16 -7 7 -13 7 -17 1z"/>
<path d="M2432 3614 c-7 -8 -8 -14 -3 -14 10 0 25 19 20 25 -2 1 -10 -3 -17
-11z"/>
<path d="M1476 3502 c-2 -4 4 -8 14 -8 10 0 16 4 14 8 -3 4 -9 8 -14 8 -5 0
-11 -4 -14 -8z"/>
<path d="M1475 3470 c-3 -5 -1 -10 4 -10 6 0 11 5 11 10 0 6 -2 10 -4 10 -3 0
-8 -4 -11 -10z"/>
<path d="M2165 3450 c3 -5 8 -10 11 -10 2 0 4 5 4 10 0 6 -5 10 -11 10 -5 0
-7 -4 -4 -10z"/>
<path d="M1617 3335 c-4 -8 -2 -17 3 -20 6 -4 10 -4 10 -1 0 2 3 11 6 20 3 9
2 16 -4 16 -5 0 -12 -7 -15 -15z"/>
<path d="M3618 2833 c7 -3 16 -2 19 1 4 3 -2 6 -13 5 -11 0 -14 -3 -6 -6z"/>
<path d="M3710 2776 c0 -2 7 -7 16 -10 8 -3 12 -2 9 4 -6 10 -25 14 -25 6z"/>
<path d="M520 2760 c-12 -8 -11 -10 8 -10 12 0 22 5 22 10 0 13 -11 13 -30 0z"/>
<path d="M3656 2651 c-4 -5 -2 -12 3 -15 5 -4 12 -2 15 3 4 5 2 12 -3 15 -5 4
-12 2 -15 -3z"/>
<path d="M3601 2601 c-10 -6 -10 -10 -1 -16 13 -8 24 -1 19 14 -3 6 -10 7 -18
2z"/>
<path d="M286 2478 c4 -5 12 -7 19 -4 7 2 18 0 24 -5 8 -6 8 -5 1 3 -11 14
-52 19 -44 6z"/>
<path d="M320 2429 c0 -5 5 -7 10 -4 6 3 10 8 10 11 0 2 -4 4 -10 4 -5 0 -10
-5 -10 -11z"/>
<path d="M3343 2343 c4 -3 1 -13 -6 -22 -11 -14 -10 -14 5 -2 16 12 16 31 1
31 -4 0 -3 -3 0 -7z"/>
<path d="M714 2099 c0 -13 3 -15 13 -7 7 6 13 12 13 13 0 2 -6 5 -13 8 -7 3
-13 -3 -13 -14z"/>
<path d="M793 2018 c-13 -6 -23 -15 -23 -20 0 -14 30 -9 36 7 4 8 11 12 17 8
6 -3 7 -1 3 5 -4 7 -8 12 -9 11 -1 0 -12 -5 -24 -11z"/>
<path d="M3015 1901 c-3 -5 -1 -12 5 -16 5 -3 10 1 10 9 0 18 -6 21 -15 7z"/>
<path d="M475 1661 c-7 -12 12 -24 25 -16 11 7 4 25 -10 25 -5 0 -11 -4 -15
-9z"/>
<path d="M3318 1635 c22 -25 28 -28 33 -16 10 24 -7 46 -34 46 l-25 1 26 -31z"/>
<path d="M3423 1525 c0 -8 4 -12 9 -9 5 3 6 10 3 15 -9 13 -12 11 -12 -6z"/>
<path d="M3542 1421 c4 -13 18 -16 19 -4 0 4 -5 9 -11 12 -7 2 -11 -2 -8 -8z"/>
<path d="M3566 1392 c-3 -5 1 -9 9 -9 8 0 12 4 9 9 -3 4 -7 8 -9 8 -2 0 -6 -4
-9 -8z"/>
<path d="M156 1382 c-3 -6 -1 -14 4 -17 8 -5 6 -13 -5 -25 -16 -17 -19 -18
-40 -4 -19 12 -25 13 -31 2 -4 -7 -3 -10 1 -5 5 4 17 -1 27 -10 18 -16 20 -15
45 9 19 20 23 30 16 43 -7 11 -13 14 -17 7z"/>
<path d="M190 1379 c0 -5 5 -7 10 -4 6 3 10 8 10 11 0 2 -4 4 -10 4 -5 0 -10
-5 -10 -11z"/>
<path d="M158 1203 c7 -3 16 -2 19 1 4 3 -2 6 -13 5 -11 0 -14 -3 -6 -6z"/>
<path d="M3608 1193 c7 -3 16 -2 19 1 4 3 -2 6 -13 5 -11 0 -14 -3 -6 -6z"/>
<path d="M1920 880 c0 -5 7 -10 16 -10 8 0 12 5 9 10 -3 6 -10 10 -16 10 -5 0
-9 -4 -9 -10z"/>
<path d="M1783 809 c-1 -10 2 -19 8 -19 11 0 12 27 1 34 -4 2 -9 -4 -9 -15z"/>
<path d="M1732 749 c-8 -13 -19 -18 -29 -15 -13 5 -14 4 -3 -9 17 -20 27 -19
40 6 15 28 8 44 -8 18z"/>
<path d="M2000 691 c0 -6 5 -13 10 -16 6 -3 10 1 10 9 0 9 -4 16 -10 16 -5 0
-10 -4 -10 -9z"/>
<path d="M1635 670 c3 -5 8 -10 11 -10 2 0 4 5 4 10 0 6 -5 10 -11 10 -5 0 -7
-4 -4 -10z"/>
<path d="M1596 642 c-3 -5 1 -9 9 -9 8 0 12 4 9 9 -3 4 -7 8 -9 8 -2 0 -6 -4
-9 -8z"/>
<path d="M1640 636 c7 -7 13 -7 20 0 6 6 3 10 -10 10 -13 0 -16 -4 -10 -10z"/>
<path d="M2194 605 c8 -8 18 -15 22 -15 3 0 1 7 -6 15 -7 8 -17 15 -22 15 -5
0 -3 -7 6 -15z"/>
<path d="M2164 585 c-4 -9 -2 -21 3 -26 7 -7 12 -3 16 10 6 25 -11 39 -19 16z"/>
<path d="M1475 489 c-3 -4 2 -6 10 -5 21 3 28 13 10 13 -9 0 -18 -4 -20 -8z"/>
<path d="M2325 430 c-3 -5 -1 -10 4 -10 6 0 11 5 11 10 0 6 -2 10 -4 10 -3 0
-8 -4 -11 -10z"/>
<path d="M1122 410 c0 -14 2 -19 5 -12 2 6 2 18 0 25 -3 6 -5 1 -5 -13z"/>
<path d="M2436 347 c3 -10 9 -15 12 -12 3 3 0 11 -7 18 -10 9 -11 8 -5 -6z"/>
<path d="M1306 305 c-3 -9 0 -15 9 -15 16 0 20 16 6 24 -5 3 -11 -1 -15 -9z"/>
<path d="M2490 250 c-6 -11 -8 -20 -6 -20 3 0 10 9 16 20 6 11 8 20 6 20 -3 0
-10 -9 -16 -20z"/>
<path d="M1257 253 c-13 -13 -7 -32 8 -27 8 4 15 12 15 20 0 15 -12 19 -23 7z"/>
</g>
</svg>
